IKResults-ET5
version=1
nRows=12
nColumns=24
inDegrees=yes

Units are S.I. units (second, meters, Newtons, ...)
If the header above contains a line with 'inDegrees', this indicates whether rotational values are in degrees (yes) or radians (no).

endheader
time	pelvis_tilt	pelvis_list	pelvis_rotation	pelvis_tx	pelvis_ty	pelvis_tz	hip_flexion_r	hip_adduction_r	hip_rotation_r	knee_angle_r	ankle_angle_r	subtalar_angle_r	mtp_angle_r	hip_flexion_l	hip_adduction_l	hip_rotation_l	knee_angle_l	ankle_angle_l	subtalar_angle_l	mtp_angle_l	lumbar_extension	lumbar_bending	lumbar_rotation
      5.52000000	      1.33935357	     -5.93957372	    190.21837158	      0.01260736	      0.96943773	     -0.11152014	    213.60376394	   -171.14826871	   -180.83070394	     -8.96124539	     16.10012517	      4.68350754	      0.00000000	    -11.34480279	      8.64419979	      9.53924276	    -17.56353532	     25.41619555	     11.76841227	      0.00000000	    -14.38359215	     -6.16229988	    -10.32298658
      5.53000000	      1.37979351	     -5.80184269	    190.66573505	     -0.00335486	      0.96702582	     -0.11107628	    213.58070288	   -171.11373677	   -180.79340419	    -10.36124934	     16.44037833	      5.08712838	      0.00000000	    -11.84937930	      8.32585166	      9.96874107	    -18.46373875	     25.63789133	     11.53434681	      0.00000000	    -14.30096406	     -5.88498248	    -10.66363811
      5.54000000	      1.38738073	     -5.64056338	    191.09738372	     -0.01957747	      0.96489458	     -0.11061981	    213.42019902	   -171.15591406	   -180.54443403	    -11.99366006	     16.68203404	      5.04201489	      0.00000000	    -12.33406567	      7.97638409	     10.33869287	    -19.43649204	     25.73556056	     11.39832611	      0.00000000	    -14.24252439	     -5.53827390	    -10.76638557
      5.55000000	      1.36177495	     -5.41590374	    191.57125343	     -0.03619312	      0.96304118	     -0.11019859	    213.04645190	   -171.31151944	   -180.30233146	    -13.53914818	     16.87687408	      3.80368868	      0.00000000	    -12.81607408	      7.52792015	     10.70224856	    -20.46114527	     25.56862461	     10.96925585	      0.00000000	    -14.16227474	     -5.16629868	    -11.18667500
      5.56000000	      1.38966365	     -5.13117887	    192.02067164	     -0.05304963	      0.96143610	     -0.10997404	    212.56157513	   -171.60985345	   -180.01541819	    -14.36822129	     17.02816675	      1.90943680	      0.00000000	    -13.12918140	      6.98563923	     10.79271099	    -21.60356889	     25.18465031	     10.94023236	      0.00000000	    -13.98145127	     -4.72255667	    -11.50456822
      5.57000000	      1.57022940	     -4.76709789	    192.49457356	     -0.06997762	      0.95999487	     -0.10976677	    212.09523936	   -171.94652590	   -180.08036897	    -14.37945662	     15.45083795	      0.06051828	      0.00000000	    -13.18575113	      6.37442966	     10.84444628	    -22.80872431	     24.44512775	     10.80096466	      0.00000000	    -13.59297228	     -4.22613868	    -11.74752086
      5.58000000	      1.95360122	     -4.29887354	    192.89524513	     -0.08685048	      0.95879830	     -0.10983823	    211.78999929	   -172.37980013	   -180.24580015	    -14.10423403	     12.39448685	     -1.45010207	      0.00000000	    -12.87607505	      5.71839994	     10.82540871	    -24.15138130	     23.46975878	     10.65917139	      0.00000000	    -12.93397851	     -3.70140859	    -11.86388173
      5.59000000	      2.40171204	     -3.68541474	    193.19325601	     -0.10381103	      0.95804274	     -0.11030749	    211.55656238	   -172.98349013	   -180.68256500	    -13.74144612	      9.53733046	     -2.02714998	      0.00000000	    -12.33267891	      4.90102787	     10.54132893	    -25.60917517	     22.27567483	     11.23705371	      0.00000000	    -12.17018088	     -3.08870732	    -11.84413386
      5.60000000	      2.85833824	     -2.81963847	    193.32551643	     -0.12079565	      0.95779636	     -0.11138796	    211.49919795	   -173.90821364	   -181.11759937	    -13.83382388	      7.37391088	     -1.72922364	      0.00000000	    -11.52351831	      3.82320843	      9.94865060	    -27.30536844	     20.80283310	     11.61337745	      0.00000000	    -11.42577304	     -2.20011115	    -11.66292960
      5.61000000	      3.19845417	     -1.87097287	    193.33267852	     -0.13792758	      0.95810365	     -0.11260729	    211.48543833	   -174.99444027	   -181.23182579	    -14.36485871	      5.38323172	     -2.02185504	      0.00000000	    -10.63087922	      2.63298136	      9.22166595	    -29.22860995	     18.90479914	     12.28091418	      0.00000000	    -10.70628664	     -1.21303307	    -11.34938077
      5.62000000	      3.41937117	     -0.96225362	    193.20108434	     -0.15512341	      0.95883378	     -0.11390397	    211.44509488	   -176.12106689	   -181.44206255	    -15.11682528	      4.01436641	     -2.62055740	      0.00000000	     -9.66453435	      1.49676125	      8.38209194	    -31.44225106	     16.58839000	     12.61364879	      0.00000000	    -10.11032606	     -0.24749086	    -10.92850415
      5.63000000	      3.56300421	     -0.15096912	    192.97959573	     -0.17204317	      0.95984141	     -0.11509525	    211.37611414	   -177.17539358	   -181.51320864	    -16.09011004	      3.13535419	     -3.42420467	      0.00000000	     -8.51034431	      0.47809981	      7.52536860	    -34.02750261	     13.82263537	     13.03790745	      0.00000000	     -9.68271446	      0.70124182	    -10.39479742
